<mxfile host="app.diagrams.net" modified="2024-05-05T10:15:31.786Z" agent="Mozilla/5.0 (X11; Linux x86_64) AppleWebKit/537.36 (KHTML, like Gecko) Chrome/124.0.0.0 Safari/537.36" etag="iJASfHNvFSxpDrdS_gx2" version="24.3.1" type="device">
  <diagram name="Page-1" id="MesBITrG6GYanS-Drifp">
    <mxGraphModel dx="1050" dy="669" grid="1" gridSize="10" guides="1" tooltips="1" connect="1" arrows="1" fold="1" page="1" pageScale="1" pageWidth="850" pageHeight="1100" math="0" shadow="0">
      <root>
        <mxCell id="0" />
        <mxCell id="1" parent="0" />
        <mxCell id="gmrw63WljejzVD6nv0EA-9" value="Insert a coin" style="edgeStyle=orthogonalEdgeStyle;rounded=0;orthogonalLoop=1;jettySize=auto;html=1;exitX=0.5;exitY=0;exitDx=0;exitDy=0;entryX=0.5;entryY=0;entryDx=0;entryDy=0;curved=1;" edge="1" parent="1" source="gmrw63WljejzVD6nv0EA-1" target="gmrw63WljejzVD6nv0EA-2">
          <mxGeometry relative="1" as="geometry" />
        </mxCell>
        <mxCell id="gmrw63WljejzVD6nv0EA-1" value="Idle" style="ellipse;whiteSpace=wrap;html=1;" vertex="1" parent="1">
          <mxGeometry x="340" y="150" width="80" height="80" as="geometry" />
        </mxCell>
        <mxCell id="gmrw63WljejzVD6nv0EA-6" style="edgeStyle=orthogonalEdgeStyle;rounded=0;orthogonalLoop=1;jettySize=auto;html=1;exitX=0.5;exitY=1;exitDx=0;exitDy=0;entryX=1;entryY=0.5;entryDx=0;entryDy=0;strokeColor=none;curved=1;" edge="1" parent="1" source="gmrw63WljejzVD6nv0EA-2" target="gmrw63WljejzVD6nv0EA-3">
          <mxGeometry relative="1" as="geometry" />
        </mxCell>
        <mxCell id="gmrw63WljejzVD6nv0EA-8" value="Select a&lt;div&gt;product&lt;/div&gt;" style="edgeStyle=orthogonalEdgeStyle;rounded=0;orthogonalLoop=1;jettySize=auto;html=1;exitX=0.5;exitY=1;exitDx=0;exitDy=0;entryX=1;entryY=0.5;entryDx=0;entryDy=0;curved=1;" edge="1" parent="1" source="gmrw63WljejzVD6nv0EA-2" target="gmrw63WljejzVD6nv0EA-3">
          <mxGeometry relative="1" as="geometry" />
        </mxCell>
        <mxCell id="gmrw63WljejzVD6nv0EA-2" value="Selecting" style="ellipse;whiteSpace=wrap;html=1;" vertex="1" parent="1">
          <mxGeometry x="510" y="150" width="80" height="80" as="geometry" />
        </mxCell>
        <mxCell id="gmrw63WljejzVD6nv0EA-7" value="Deliver the&lt;div&gt;product&lt;/div&gt;" style="edgeStyle=orthogonalEdgeStyle;rounded=0;orthogonalLoop=1;jettySize=auto;html=1;exitX=0;exitY=0.5;exitDx=0;exitDy=0;entryX=0.5;entryY=1;entryDx=0;entryDy=0;curved=1;" edge="1" parent="1" source="gmrw63WljejzVD6nv0EA-3" target="gmrw63WljejzVD6nv0EA-1">
          <mxGeometry relative="1" as="geometry" />
        </mxCell>
        <mxCell id="gmrw63WljejzVD6nv0EA-3" value="Delivering" style="ellipse;whiteSpace=wrap;html=1;" vertex="1" parent="1">
          <mxGeometry x="425" y="270" width="80" height="80" as="geometry" />
        </mxCell>
      </root>
    </mxGraphModel>
  </diagram>
</mxfile>
